<svg width="50" height="50" viewBox="0 0 50 50" fill="none" xmlns="http://www.w3.org/2000/svg">
<path fill-rule="evenodd" clip-rule="evenodd" d="M24.4924 28.0149C24.807 28.1899 25.1904 28.1899 25.5049 28.0149L44.255 17.5982C44.5862 17.4149 44.7904 17.067 44.7904 16.6878C44.7904 16.3107 44.5862 15.9607 44.255 15.7774L25.5049 5.36074C25.1904 5.18574 24.807 5.18574 24.4924 5.36074L5.74245 15.7774C5.4112 15.9607 5.20703 16.3107 5.20703 16.6878C5.20703 17.067 5.4112 17.4149 5.74245 17.5982L24.4924 28.0149ZM24.9987 25.9128L8.39453 16.6878L24.9987 7.46283L41.6029 16.6878L24.9987 25.9128Z" fill="#99A537"/>
<path fill-rule="evenodd" clip-rule="evenodd" d="M5.74233 25.9315L24.4923 36.3481C24.8069 36.5231 25.1903 36.5231 25.5048 36.3481L44.2548 25.9315C44.7569 25.6523 44.9382 25.019 44.659 24.5148C44.3798 24.0127 43.7444 23.8315 43.2423 24.1106L24.9986 34.246L6.75483 24.1106C6.25275 23.8315 5.61733 24.0127 5.33817 24.5148C5.059 25.019 5.24025 25.6523 5.74233 25.9315Z" fill="#99A537"/>
<path fill-rule="evenodd" clip-rule="evenodd" d="M5.74233 34.2645L24.4923 44.6811C24.8069 44.8561 25.1903 44.8561 25.5048 44.6811L44.2548 34.2645C44.7569 33.9853 44.9382 33.352 44.659 32.8478C44.3798 32.3457 43.7444 32.1645 43.2423 32.4436L24.9986 42.5791L6.75483 32.4436C6.25275 32.1645 5.61733 32.3457 5.33817 32.8478C5.059 33.352 5.24025 33.9853 5.74233 34.2645Z" fill="#99A537"/>
</svg>
